<svg width="16" height="16" viewBox="0 0 16 16" fill="none" xmlns="http://www.w3.org/2000/svg">
<g clip-path="url(#clip0_7_2108)">
<path d="M11.2433 6.44672L9.31329 6.16672L8.44995 4.41672C8.36662 4.24672 8.19329 4.13672 7.99995 4.13672C7.80662 4.13672 7.63662 4.24339 7.54995 4.41672L6.68662 6.16672L4.75662 6.44672C4.56995 6.47339 4.41329 6.60672 4.35329 6.78672C4.29329 6.96672 4.34329 7.16672 4.47995 7.30005L5.87662 8.66005L5.54662 10.5834C5.53105 10.6754 5.54151 10.7699 5.57682 10.8563C5.61213 10.9427 5.67089 11.0175 5.74646 11.0723C5.82202 11.1271 5.9114 11.1596 6.00449 11.1663C6.09758 11.173 6.19068 11.1535 6.27329 11.1101L7.99995 10.2001L9.72662 11.1067C9.79995 11.1467 9.87995 11.1634 9.95995 11.1634C10.0633 11.1634 10.1666 11.1301 10.2533 11.0667C10.4066 10.9534 10.4833 10.7667 10.4533 10.5767L10.1233 8.65338L11.52 7.29339C11.6566 7.16005 11.7066 6.96339 11.6466 6.78005C11.5866 6.60339 11.43 6.47339 11.2433 6.44672ZM9.23662 8.12672C9.11995 8.24005 9.06329 8.40672 9.09329 8.57005L9.29662 9.75339L8.23329 9.19339C8.15995 9.15672 8.07995 9.13672 7.99995 9.13672C7.91995 9.13672 7.83995 9.15672 7.76662 9.19339L6.70329 9.75339L6.90662 8.57005C6.93329 8.40672 6.87995 8.24338 6.76329 8.12672L5.90329 7.29005L7.08995 7.11672C7.25329 7.09339 7.39329 6.99005 7.46662 6.84339L7.99995 5.76672L8.52995 6.84339C8.60329 6.99005 8.74329 7.09339 8.90662 7.11672L10.0933 7.29005L9.23662 8.12672Z" fill="#252525"/>
<path d="M8.00004 0.833374C4.05004 0.833374 0.833374 4.05004 0.833374 8.00004C0.833374 11.9534 4.05004 15.1667 8.00004 15.1667C11.95 15.1667 15.1667 11.9534 15.1667 8.00004C15.1667 4.05004 11.95 0.833374 8.00004 0.833374ZM8.00004 14.1667C4.60004 14.1667 1.83337 11.4 1.83337 8.00004C1.83337 4.60004 4.60004 1.83337 8.00004 1.83337C11.4 1.83337 14.1667 4.60004 14.1667 8.00004C14.1667 11.4 11.4 14.1667 8.00004 14.1667Z" fill="#252525"/>
</g>
<defs>
<clipPath id="clip0_7_2108">
<rect width="16" height="16" fill="white"/>
</clipPath>
</defs>
</svg>
